PathFileType	4	(X/Y/Z)	c:\Git\powerlifing_model_clean\simulations\HC835B\Session1\HC835B_OGW_0003\marker_experimental.trc
DataRate	CameraRate	NumFrames	NumMarkers	Units	OrigDataRate	OrigDataStartFrame	OrigNumFrames
240.000000	240.000000	4	38	mm	240.000000	267	428
Frame#	Time	RPSI			LPSI			RASI			LASI			RTH1			RTH2			RTH3			RTH4			RSK1			RSK2			RSK3			RSK4			RCAL1			RCAL2			RCAL3			RST			RPT			RTN			RFMB			RSMB			RVMB			RFMH			RSMH			RVMH			RPM			LTH1			LTH2			LTH3			LTH4			LSK1			LSK2			LSK3			LSK4			LCAL1			LCAL2			LCAL3			LFMH			LVMH			
		X1	Y1	Z1	X2	Y2	Z2	X3	Y3	Z3	X4	Y4	Z4	X5	Y5	Z5	X6	Y6	Z6	X7	Y7	Z7	X8	Y8	Z8	X9	Y9	Z9	X10	Y10	Z10	X11	Y11	Z11	X12	Y12	Z12	X13	Y13	Z13	X14	Y14	Z14	X15	Y15	Z15	X16	Y16	Z16	X17	Y17	Z17	X18	Y18	Z18	X19	Y19	Z19	X20	Y20	Z20	X21	Y21	Z21	X22	Y22	Z22	X23	Y23	Z23	X24	Y24	Z24	X25	Y25	Z25	X26	Y26	Z26	X27	Y27	Z27	X28	Y28	Z28	X29	Y29	Z29	X30	Y30	Z30	X31	Y31	Z31	X32	Y32	Z32	X33	Y33	Z33	X34	Y34	Z34	X35	Y35	Z35	X36	Y36	Z36	X37	Y37	Z37	X38	Y38	Z38	

268	1.1125	454.4021911621095	1078.640869140625	-705.8377075195314	564.1306152343751	1085.089599609375	-709.3108520507814	408.4801635742189	1047.074951171875	-491.5802612304689	652.4003295898439	1041.500854492188	-507.6845703125001	334.1531066894532	781.183288574219	-477.720428466797	348.3835144042969	794.9654541015627	-420.5169982910157	349.5018920898438	716.0966796875001	-425.232635498047	373.4859924316407	728.3726196289064	-373.1207275390626	417.1856994628907	274.8911132812501	-335.3634643554688	406.9913940429689	283.1602478027344	-274.7952575683594	420.9527587890626	228.9321746826172	-299.4371948242188	422.6270141601564	238.0061645507813	-239.7892150878907	491.7044372558595	82.23851776123048	-283.1229553222657	522.9241333007814	49.95470809936525	-263.3372192382813	459.5585021972657	47.19315719604493	-273.0177917480469	529.0543823242189	82.57373046875001	-201.0756072998047	427.496063232422	70.41683959960939	-223.5935821533204	504.4087829589845	118.2483901977539	-160.237060546875	498.5659179687501	113.4365921020508	-124.7714004516602	448.7821350097657	135.1359558105469	-127.5271987915039	415.1228332519532	57.2125930786133	-174.2649078369141	498.6505126953126	102.7393493652344	-67.17640686035158	442.4637756347657	121.004020690918	-63.36312866210939	389.8684082031251	70.21746826171876	-100.979476928711	446.3225708007814	134.4776153564453	-10.00468826293945	701.1707153320314	785.9932250976565	-671.0360107421876	696.6922607421876	758.8963012695314	-616.9928588867189	691.7986450195314	701.3487548828126	-673.5989990234376	673.6448974609376	675.6875610351564	-620.5274047851564	635.0046997070314	323.6832580566407	-942.0933227539065	642.0665893554689	283.2445373535157	-907.6783447265627	630.4902343750001	268.3137817382813	-953.9729003906252	623.0937500000001	228.6543884277344	-914.514587402344	564.9498291015626	153.7746276855469	-1074.077026367188	591.5466308593751	115.8509063720703	-1086.262084960938	533.1873779296876	118.0693740844727	-1079.71826171875	538.2401733398439	58.45462036132814	-867.461364746094	638.5977783203126	34.90240097045899	-919.8398437500002	
269	1.116666666666667	454.4338378906251	1077.964965820313	-697.9234008789064	564.1423339843751	1084.268920898438	-701.4163818359376	408.0838623046876	1047.111572265625	-483.2800903320314	651.9329223632814	1040.44775390625	-499.6810913085939	334.5422668457032	780.6611328125002	-469.5796203613282	347.9398498535157	794.1718750000002	-412.0842285156251	349.9381103515626	715.4824218750001	-417.2001953125001	373.1873168945313	727.6707153320314	-364.8146362304688	418.010955810547	274.6112365722657	-328.6800842285157	408.3309326171876	282.4755554199219	-267.9498596191407	422.0762939453126	228.2131958007813	-293.0485229492188	424.1956481933595	237.1016540527344	-233.3669128417969	492.2522277832032	83.25317382812501	-279.9958190917969	523.2328491210939	50.03987121582033	-261.5248413085938	459.8743896484376	48.31076812744142	-270.8673095703126	529.9220581054689	80.32260894775392	-198.1009979248047	428.0861206054689	70.22268676757814	-220.4421997070313	506.2064208984376	115.477523803711	-156.5928192138672	500.5626831054689	110.182975769043	-121.0953369140625	451.2226867675782	132.484603881836	-123.1642456054688	416.3745727539064	55.78979492187501	-171.5165710449219	500.7876281738282	98.20981597900393	-64.45403289794923	444.8268127441407	117.170166015625	-58.89641571044923	391.8386230468751	67.35950469970705	-98.06709289550784	449.1356201171876	129.4386291503907	-6.097757339477541	701.2429809570314	784.9884033203127	-662.7291259765626	696.7881469726564	758.0634155273439	-608.6441650390626	692.0950927734376	700.2484130859376	-665.0373535156251	673.8713378906251	674.7437744140626	-611.9401245117189	635.6226806640626	325.6457824707032	-936.6600341796877	643.0313110351564	284.7495727539063	-902.9544677734377	631.2351684570314	270.5525512695313	-949.4581298828127	624.2348632812501	230.1897277832032	-910.5098876953127	565.4108886718751	157.9522552490235	-1070.639770507813	591.8413696289064	120.1940002441407	-1083.680541992188	533.4992675781251	122.7193832397461	-1076.9541015625	538.3221435546876	58.37445449829103	-866.6900024414065	638.6259765625001	35.12078094482423	-919.6287231445315	
270	1.120833333333333	454.475067138672	1077.485595703125	-690.0433959960939	564.4088745117189	1083.807739257813	-693.9137573242189	407.7381286621095	1047.244506835938	-475.0916137695314	651.4104614257814	1039.457153320313	-491.6411132812501	334.9941711425782	780.1481933593752	-461.5965270996095	347.5483703613282	793.3694458007815	-403.8840637207032	350.0874328613282	715.1260375976564	-409.3489379882814	372.8740539550782	726.8881835937501	-356.6920471191407	418.412567138672	274.8524475097657	-321.8613891601563	409.3056945800782	282.0562133789063	-260.9925537109376	422.3231506347657	227.9447631835938	-286.5521850585938	425.4269409179689	236.3308410644532	-226.9305114746094	492.397186279297	84.35961151123048	-277.1488952636719	523.3654785156251	50.42092132568361	-259.8839416503907	459.9658508300782	49.12755584716798	-269.1888122558594	530.5021362304689	78.4883499145508	-195.4838104248047	428.7685546875001	69.7846145629883	-217.7515869140626	507.6128845214845	112.9972915649414	-153.1598815917969	502.2773742675782	106.9454803466797	-117.6301574707032	453.0034179687501	129.6623992919922	-118.7772750854492	417.384735107422	54.50133514404298	-169.1468353271485	502.968475341797	93.45271301269533	-61.70993041992189	447.0886230468751	112.7587661743164	-54.87171554565431	393.5551757812501	64.0406951904297	-95.33103942871095	451.9842834472657	123.7650146484375	-2.21613359451294	701.2913208007814	783.9229125976565	-654.2510986328126	696.8830566406251	757.2565307617189	-600.0722045898439	692.4468994140626	699.2416381835939	-656.2236938476564	674.1434326171876	673.8386230468751	-603.0734252929689	636.2913818359376	327.8692016601563	-930.9727783203127	644.0309448242189	286.4072875976563	-897.9418945312502	632.0771484375001	272.9176940917969	-944.5712890625002	625.4496459960939	231.8799896240235	-906.2173461914065	566.1733398437501	162.615707397461	-1066.7373046875	592.0607299804689	124.7525634765625	-1080.9013671875	533.7304077148439	127.4876022338867	-1073.878173828125	538.4734497070314	58.2922821044922	-865.882019042969	638.6368408203126	35.37542724609376	-919.3776855468752	
271	1.125	454.5326538085939	1077.164916992188	-682.3061523437501	564.1111450195314	1083.18310546875	-685.7553100585939	407.3648986816407	1047.469360351563	-466.9172668457032	650.8506469726564	1038.586669921875	-483.5480346679689	335.3738403320313	779.7529907226565	-453.665008544922	347.0778808593751	792.630798339844	-395.6990661621095	350.7857971191407	714.4277954101564	-401.775848388672	372.5979309082032	726.1188354492189	-348.6538391113282	418.3301391601564	275.1673889160157	-315.0285644531251	409.9996032714845	281.8049926757813	-254.1278991699219	422.3476867675782	227.8693542480469	-280.3843078613282	426.374725341797	235.692367553711	-220.7484283447266	493.1065368652345	86.47686004638673	-276.6479492187501	523.2883911132814	50.9669532775879	-258.4635925292969	459.7860107421876	49.80794525146486	-267.4667358398438	530.9153442382814	77.10144805908205	-193.3465576171876	429.0911865234376	69.40718841552736	-215.0140075683594	509.2804565429689	111.7701416015625	-148.8941802978516	503.5828857421876	103.6854782104492	-114.433219909668	454.3564758300782	126.599838256836	-114.5710220336914	417.4431152343751	53.31043243408205	-166.8812255859375	504.788787841797	88.51101684570314	-58.93270874023439	448.9287719726564	107.757064819336	-50.96076965332033	394.9688415527345	60.64272689819337	-92.76141357421876	454.3172912597657	117.3512496948242	1.859314322471619	701.3504638671876	782.9824218750002	-645.5975952148439	697.0155639648439	756.4954833984376	-591.2755737304689	692.8754882812501	698.2411499023439	-647.2467041015626	674.5898437500001	672.9114990234376	-594.0558471679689	636.9499511718751	330.1066284179688	-924.895935058594	645.1951293945314	288.2323608398438	-892.5435180664065	632.8847656250001	275.3586120605469	-939.2954101562502	626.8801269531251	233.7231140136719	-901.5691528320315	566.6571655273439	167.3572845458985	-1062.640014648438	592.3390502929689	129.7502746582032	-1077.809936523438	534.1004638671876	133.0020599365235	-1070.341674804688	538.5852050781251	58.20186233520509	-865.0979003906252	638.6159057617189	35.65293121337891	-919.1262207031252	
